<!-- Generated by IcoMoon.io -->
<svg version="1.1" xmlns="http://www.w3.org/2000/svg" width="128" height="128" viewBox="0 0 128 128">
<title>icons_v5-17</title>
<path fill="#ffcb2e" d="M55.004 97.579c0 1.317-1.080 2.402-2.402 2.402h-11.551c-1.322 0-2.402-1.085-2.402-2.402v-67.158c0-1.317 1.080-2.402 2.402-2.402h11.551c1.322 0 2.402 1.085 2.402 2.402v67.158z"></path>
<path fill="#ffcb2e" d="M89.352 97.579c0 1.317-1.080 2.402-2.402 2.402h-11.551c-1.322 0-2.402-1.085-2.402-2.402v-67.158c0-1.317 1.080-2.402 2.402-2.402h11.551c1.322 0 2.402 1.085 2.402 2.402v67.158z"></path>
</svg>
